<svg xmlns="http://www.w3.org/2000/svg" viewBox="0 0 565.64 427.51"><defs><style>.a{isolation:isolate;}.b,.c{fill:#d1d3d4;}.b{mix-blend-mode:multiply;}.d{fill:#231f20;}.e{fill:#fff;}.f{fill:#808285;}.g{fill:#414042;}.h{fill:#ef4133;}.i{fill:#bcbec0;}.j{fill:#a7a9ac;}.k{fill:#f7941e;}</style></defs><title>dead-robo</title><g class="a"><path class="b" d="M10.46,427.51H555.18a10.49,10.49,0,0,0,10.46-10.46h0a10.49,10.49,0,0,0-10.46-10.46H10.46A10.49,10.49,0,0,0,0,417.05H0A10.49,10.49,0,0,0,10.46,427.51Z"/><rect class="c" x="334.61" y="195.57" width="69.36" height="39.57"/><path class="d" d="M404,237.55H334.61a2.41,2.41,0,0,1-2.42-2.41V195.57a2.41,2.41,0,0,1,2.42-2.41H404a2.41,2.41,0,0,1,2.41,2.41v39.57A2.41,2.41,0,0,1,404,237.55Zm-67-4.82h64.54V198H337Z"/><rect class="c" x="272.87" y="83.23" width="191.48" height="124.79" transform="translate(10.48 -24.14) rotate(3.8)"/><path class="d" d="M460,216.65h-.16L268.78,203.94a2.38,2.38,0,0,1-1.66-.82,2.42,2.42,0,0,1-.59-1.74l8.28-124.52a2.41,2.41,0,0,1,2.57-2.25L468.44,87.32a2.4,2.4,0,0,1,2.25,2.56L462.41,214.4A2.41,2.41,0,0,1,460,216.65ZM271.51,199.29l186.24,12.38,8-119.7L279.47,79.59Z"/><polygon class="e" points="445.44 194.23 271.62 197.46 279.46 79.58 467.03 92.05 445.44 194.23"/><path class="c" d="M229.08,398l-.68,1.54a22.49,22.49,0,0,1-29.62,11.32h0a22.49,22.49,0,0,1-11.31-29.62l.68-1.53a22.49,22.49,0,0,1,29.62-11.32h0A22.48,22.48,0,0,1,229.08,398Z"/><path class="d" d="M207.87,415.16a24.85,24.85,0,0,1-22.61-35l.69-1.54A24.9,24.9,0,0,1,208.68,364a24.46,24.46,0,0,1,10.07,2.15,24.86,24.86,0,0,1,12.54,32.8l-.69,1.53A24.89,24.89,0,0,1,207.87,415.16Zm.81-46.35a20.07,20.07,0,0,0-18.32,11.83l-.69,1.54a20,20,0,0,0,18.2,28.16A20.09,20.09,0,0,0,226.2,398.5l.68-1.53a20,20,0,0,0-10.1-26.43A19.69,19.69,0,0,0,208.68,368.81Z"/><path class="e" d="M248.48,368.62h0a23.33,23.33,0,0,1-30.72,11.74L213,378.24a23.34,23.34,0,0,1-11.74-30.73h0A23.34,23.34,0,0,1,232,335.77l4.74,2.12A23.33,23.33,0,0,1,248.48,368.62Z"/><path class="d" d="M227.18,384.78a25.26,25.26,0,0,1-10.41-2.22L212,380.44A25.67,25.67,0,0,1,233,333.57l4.74,2.12a25.73,25.73,0,0,1,13,33.91A25.75,25.75,0,0,1,227.18,384.78Zm-4.61-48.61a20.79,20.79,0,0,0-19.51,28.27A20.69,20.69,0,0,0,214,376l4.74,2.12a20.53,20.53,0,0,0,8.44,1.81,20.93,20.93,0,0,0,19.1-12.33,20.92,20.92,0,0,0-10.53-27.54L231,338A20.68,20.68,0,0,0,222.57,336.17Z"/><path class="e" d="M255.83,352.18h0a23.33,23.33,0,0,1-30.73,11.74l-4.74-2.12a23.32,23.32,0,0,1-11.74-30.72h0a23.32,23.32,0,0,1,30.72-11.74l4.74,2.12A23.32,23.32,0,0,1,255.83,352.18Z"/><path class="d" d="M234.53,368.35a25.27,25.27,0,0,1-10.41-2.23L219.38,364a25.67,25.67,0,0,1,21-46.87l4.74,2.12a25.67,25.67,0,0,1-10.54,49.1Zm-4.61-48.62a20.84,20.84,0,0,0-8.57,39.87l4.74,2.12a20.48,20.48,0,0,0,8.44,1.8,20.9,20.9,0,0,0,19.09-12.33,20.9,20.9,0,0,0-10.52-27.53l-4.74-2.12A20.53,20.53,0,0,0,229.92,319.73Z"/><path class="e" d="M263.17,335.74h0a23.32,23.32,0,0,1-30.72,11.75l-4.74-2.12A23.33,23.33,0,0,1,216,314.64h0a23.33,23.33,0,0,1,30.73-11.74l4.74,2.12A23.32,23.32,0,0,1,263.17,335.74Z"/><path class="d" d="M241.87,351.91a25.49,25.49,0,0,1-10.41-2.22l-4.74-2.12a25.67,25.67,0,0,1,20.95-46.87l4.75,2.12a25.66,25.66,0,0,1-10.55,49.09Zm-4.61-48.61a20.85,20.85,0,0,0-8.57,39.86l4.74,2.12a20.53,20.53,0,0,0,8.44,1.81,20.84,20.84,0,0,0,8.58-39.87l-4.75-2.12A20.61,20.61,0,0,0,237.26,303.3Z"/><path class="e" d="M270.52,319.31h0a23.32,23.32,0,0,1-30.72,11.74l-4.75-2.12a23.33,23.33,0,0,1-11.74-30.72h0A23.33,23.33,0,0,1,254,286.46l4.74,2.12A23.33,23.33,0,0,1,270.52,319.31Z"/><path class="d" d="M249.22,335.48a25.27,25.27,0,0,1-10.41-2.23l-4.74-2.12A25.66,25.66,0,0,1,244.61,282,25.26,25.26,0,0,1,255,284.26l4.74,2.12a25.73,25.73,0,0,1,13,33.91A25.74,25.74,0,0,1,249.22,335.48Zm-4.61-48.62A20.84,20.84,0,0,0,236,326.73l4.74,2.12a20.68,20.68,0,0,0,8.44,1.8,20.93,20.93,0,0,0,19.1-12.33,20.91,20.91,0,0,0-10.53-27.53l-4.74-2.12A20.53,20.53,0,0,0,244.61,286.86Z"/><path class="e" d="M277.87,302.87h0a23.33,23.33,0,0,1-30.73,11.74l-4.74-2.12a23.32,23.32,0,0,1-11.74-30.72h0A23.32,23.32,0,0,1,261.38,270l4.74,2.12A23.32,23.32,0,0,1,277.87,302.87Z"/><path class="d" d="M256.57,319a25.42,25.42,0,0,1-10.41-2.22l-4.74-2.12a25.74,25.74,0,0,1-13-33.91A25.73,25.73,0,0,1,252,265.6a25.45,25.45,0,0,1,10.41,2.22l4.74,2.12A25.67,25.67,0,0,1,256.57,319ZM252,270.43a20.92,20.92,0,0,0-19.1,12.32,20.93,20.93,0,0,0,10.52,27.54l4.75,2.12a20.45,20.45,0,0,0,8.44,1.8,20.84,20.84,0,0,0,8.57-39.86l-4.74-2.12A20.52,20.52,0,0,0,252,270.43Z"/><path class="e" d="M285.21,286.43h0a23.32,23.32,0,0,1-30.72,11.75l-4.74-2.12A23.33,23.33,0,0,1,238,265.33h0a23.34,23.34,0,0,1,30.73-11.74l4.74,2.12A23.32,23.32,0,0,1,285.21,286.43Z"/><path class="d" d="M263.91,302.6a25.33,25.33,0,0,1-10.41-2.22l-4.74-2.12a25.67,25.67,0,0,1,10.54-49.1,25.27,25.27,0,0,1,10.41,2.23l4.75,2.12a25.75,25.75,0,0,1,13,33.91A25.76,25.76,0,0,1,263.91,302.6ZM259.3,254a20.84,20.84,0,0,0-8.57,39.86l4.74,2.12a20.53,20.53,0,0,0,8.44,1.81,20.81,20.81,0,0,0,19.52-28.27,20.71,20.71,0,0,0-10.94-11.6l-4.75-2.12A20.61,20.61,0,0,0,259.3,254Z"/><path class="e" d="M292.56,270h0a23.32,23.32,0,0,1-30.72,11.74l-4.75-2.12a23.32,23.32,0,0,1-11.74-30.72h0a23.32,23.32,0,0,1,30.73-11.74l4.74,2.11A23.33,23.33,0,0,1,292.56,270Z"/><path class="d" d="M271.26,286.17a25.27,25.27,0,0,1-10.41-2.23l-4.74-2.12a25.73,25.73,0,0,1-13-33.91,25.75,25.75,0,0,1,23.5-15.18A25.42,25.42,0,0,1,277.06,235l4.74,2.12a25.67,25.67,0,0,1-10.54,49.1Zm-4.61-48.62a20.93,20.93,0,0,0-19.1,12.33,20.92,20.92,0,0,0,10.53,27.54l4.74,2.12a20.52,20.52,0,0,0,8.44,1.8,20.83,20.83,0,0,0,8.57-39.86l-4.74-2.12A20.53,20.53,0,0,0,266.65,237.55Z"/><path class="c" d="M501.27,398l.69,1.54a22.48,22.48,0,0,0,29.61,11.32h0a22.49,22.49,0,0,0,11.32-29.62l-.69-1.53a22.48,22.48,0,0,0-29.61-11.32h0A22.48,22.48,0,0,0,501.27,398Z"/><path class="d" d="M522.49,415.16h0a24.9,24.9,0,0,1-22.74-14.69l-.68-1.53a24.85,24.85,0,0,1,12.53-32.8A24.5,24.5,0,0,1,521.67,364a24.91,24.91,0,0,1,22.74,14.68l.68,1.54a24.81,24.81,0,0,1-22.6,35Zm-.82-46.35a19.72,19.72,0,0,0-8.1,1.73A20,20,0,0,0,503.47,397l.69,1.53a20.08,20.08,0,0,0,18.33,11.84,20,20,0,0,0,18.2-28.16l-.69-1.54A20.09,20.09,0,0,0,521.67,368.81Z"/><path class="e" d="M481.87,368.62h0a23.34,23.34,0,0,0,30.73,11.74l4.74-2.12a23.33,23.33,0,0,0,11.74-30.73h0a23.33,23.33,0,0,0-30.72-11.74l-4.74,2.12A23.34,23.34,0,0,0,481.87,368.62Z"/><path class="d" d="M503.18,384.78h0a25.66,25.66,0,0,1-10.55-49.09l4.75-2.12a25.26,25.26,0,0,1,10.4-2.23,25.62,25.62,0,0,1,24,34.82,25.49,25.49,0,0,1-13.47,14.28l-4.75,2.12A25.25,25.25,0,0,1,503.18,384.78Zm4.6-48.61a20.68,20.68,0,0,0-8.44,1.8l-4.74,2.12A20.84,20.84,0,0,0,503.18,380h0a20.53,20.53,0,0,0,8.44-1.81l4.74-2.12a20.84,20.84,0,0,0-8.58-39.86Z"/><path class="e" d="M474.53,352.18h0a23.32,23.32,0,0,0,30.72,11.74L510,361.8a23.33,23.33,0,0,0,11.74-30.72h0A23.33,23.33,0,0,0,491,319.34l-4.74,2.12A23.32,23.32,0,0,0,474.53,352.18Z"/><path class="d" d="M495.83,368.35h0a25.67,25.67,0,0,1-10.54-49.1l4.74-2.12a25.42,25.42,0,0,1,10.41-2.22A25.66,25.66,0,0,1,511,364l-4.74,2.12A25.3,25.3,0,0,1,495.83,368.35Zm4.61-48.62a20.49,20.49,0,0,0-8.44,1.81l-4.75,2.12a20.84,20.84,0,0,0,8.58,39.86h0a20.52,20.52,0,0,0,8.44-1.8L509,359.6a20.84,20.84,0,0,0-8.57-39.87Z"/><path class="e" d="M467.18,335.74h0a23.33,23.33,0,0,0,30.73,11.75l4.74-2.12a23.33,23.33,0,0,0,11.74-30.73h0a23.32,23.32,0,0,0-30.72-11.74L478.92,305A23.33,23.33,0,0,0,467.18,335.74Z"/><path class="d" d="M488.48,351.91h0a25.66,25.66,0,0,1-10.54-49.09l4.74-2.12a25.3,25.3,0,0,1,10.41-2.23,25.68,25.68,0,0,1,10.54,49.1l-4.74,2.12A25.42,25.42,0,0,1,488.48,351.91Zm4.61-48.61a20.68,20.68,0,0,0-8.44,1.8l-4.74,2.12a20.84,20.84,0,0,0,8.57,39.87h0a20.49,20.49,0,0,0,8.44-1.81l4.74-2.12a20.92,20.92,0,0,0,10.53-27.53A20.93,20.93,0,0,0,493.09,303.3Z"/><path class="e" d="M459.83,319.31h0a23.33,23.33,0,0,0,30.73,11.74l4.74-2.12A23.32,23.32,0,0,0,507,298.21h0a23.32,23.32,0,0,0-30.72-11.75l-4.74,2.12A23.34,23.34,0,0,0,459.83,319.31Z"/><path class="d" d="M481.14,335.48h0a25.77,25.77,0,0,1-23.5-15.19,25.75,25.75,0,0,1,13-33.91l4.75-2.12a25.25,25.25,0,0,1,10.4-2.22,25.66,25.66,0,0,1,10.55,49.09l-4.75,2.12A25.26,25.26,0,0,1,481.14,335.48Zm4.6-48.62a20.53,20.53,0,0,0-8.44,1.81l-4.74,2.12a20.84,20.84,0,0,0,8.57,39.86h0a20.68,20.68,0,0,0,8.44-1.8l4.74-2.12a20.84,20.84,0,0,0-8.58-39.87Z"/><path class="e" d="M452.49,302.87h0a23.32,23.32,0,0,0,30.72,11.74l4.75-2.12a23.33,23.33,0,0,0,11.74-30.72h0A23.33,23.33,0,0,0,469,270l-4.74,2.12A23.32,23.32,0,0,0,452.49,302.87Z"/><path class="d" d="M473.79,319h0a25.67,25.67,0,0,1-10.54-49.1l4.74-2.12a25.42,25.42,0,0,1,10.41-2.22,25.74,25.74,0,0,1,23.5,15.19,25.74,25.74,0,0,1-13,33.91l-4.74,2.12A25.45,25.45,0,0,1,473.79,319Zm4.61-48.61a20.52,20.52,0,0,0-8.44,1.8l-4.75,2.12a20.84,20.84,0,0,0,8.58,39.86h0a20.52,20.52,0,0,0,8.44-1.8l4.74-2.12a20.84,20.84,0,0,0-8.57-39.86Z"/><path class="e" d="M445.14,286.43h0a23.33,23.33,0,0,0,30.73,11.75l4.74-2.12a23.33,23.33,0,0,0,11.74-30.73h0a23.33,23.33,0,0,0-30.72-11.74l-4.75,2.12A23.33,23.33,0,0,0,445.14,286.43Z"/><path class="d" d="M466.44,302.6h0a25.66,25.66,0,0,1-10.54-49.09l4.74-2.12a25.3,25.3,0,0,1,10.41-2.23,25.67,25.67,0,0,1,10.54,49.1l-4.74,2.12A25.26,25.26,0,0,1,466.44,302.6ZM471.05,254a20.68,20.68,0,0,0-8.44,1.8l-4.74,2.12a20.84,20.84,0,0,0,8.57,39.87h0a20.49,20.49,0,0,0,8.44-1.81l4.74-2.12A20.83,20.83,0,0,0,471.05,254Z"/><path class="e" d="M437.79,270h0a23.33,23.33,0,0,0,30.73,11.74l4.74-2.12A23.32,23.32,0,0,0,485,248.9h0a23.31,23.31,0,0,0-30.72-11.74l-4.74,2.11A23.35,23.35,0,0,0,437.79,270Z"/><path class="d" d="M459.1,286.17h0a25.67,25.67,0,0,1-10.55-49.1L453.3,235a25.42,25.42,0,0,1,10.41-2.22,25.76,25.76,0,0,1,23.5,15.18,25.75,25.75,0,0,1-13,33.91l-4.75,2.12A25.26,25.26,0,0,1,459.1,286.17Zm4.61-48.62a20.54,20.54,0,0,0-8.45,1.81l-4.74,2.12a20.84,20.84,0,0,0,8.58,39.86h0a20.52,20.52,0,0,0,8.44-1.8l4.74-2.12a20.84,20.84,0,0,0-8.57-39.87Z"/><rect class="f" x="286.35" y="263.77" width="164.24" height="92.29"/><path class="d" d="M450.59,358.86H286.35a2.81,2.81,0,0,1-2.8-2.8V263.77a2.8,2.8,0,0,1,2.8-2.8H450.59a2.8,2.8,0,0,1,2.8,2.8v92.29A2.81,2.81,0,0,1,450.59,358.86Zm-161.44-5.6H447.79V266.57H289.15Z"/><path class="e" d="M450.47,325.67h-2.4l2.15-1.07L444.45,313,438,316.22l3.79-6.13-11-6.81L427,309.4v-7.2H414.05v2.41L413,302.45l-11.59,5.77,3.21,6.45-6.13-3.8-6.81,11,6.12,3.79h-7.2v12.95H393l-2.16,1.07,5.77,11.6,6.44-3.21-3.79,6.12,11,6.82,3.79-6.13v7.21H427v-2.41l1.07,2.15,11.59-5.76-3.2-6.45,6.12,3.79,6.82-11-6.13-3.79h7.2Zm-29.94,18.14a11.67,11.67,0,1,1,11.66-11.66A11.66,11.66,0,0,1,420.53,343.81Z"/><path class="d" d="M427,364.51H414.05a2.42,2.42,0,0,1-2.28-1.61,2.46,2.46,0,0,1-1,.47,2.42,2.42,0,0,1-1.82-.3l-11-6.82a4.18,4.18,0,0,0-3.54-3.89l-5.77-11.59a2.45,2.45,0,0,1-.26-1.08,2.37,2.37,0,0,1-.25-1.07V325.67a2.41,2.41,0,0,1,1.62-2.27,2.31,2.31,0,0,1-.47-1,2.42,2.42,0,0,1,.29-1.82l6.82-11a2.41,2.41,0,0,1,2.57-1.08,2.44,2.44,0,0,1,.11-1.07,2.38,2.38,0,0,1,1.21-1.39l11.59-5.77a101.4,101.4,0,0,0,2.15-.51H427a2.43,2.43,0,0,1,2.28,1.62,2.27,2.27,0,0,1,1-.47,2.42,2.42,0,0,1,1.82.29l11,6.82a2.46,2.46,0,0,1,1.08,1.5,2.57,2.57,0,0,1,0,1.07,2.41,2.41,0,0,1,2.45,1.32l5.77,11.59a164.46,164.46,0,0,1,.51,2.15v12.95a2.43,2.43,0,0,1-1.62,2.28,2.4,2.4,0,0,1,.18,2.78l-6.82,11a2,2,0,0,0-2.68,2.15,2.42,2.42,0,0,1-1.21,1.4L429.15,364a2.32,2.32,0,0,1-1.08.26A2.37,2.37,0,0,1,427,364.51Zm-10.54-4.83h8.13a2.41,2.41,0,0,1,4.57-1.07l7.27-3.62-2.14-4.29a2.41,2.41,0,0,1,3.44-3.12l4.07,2.52,4.27-6.91L442,340.67a2.41,2.41,0,0,1,1.27-4.46h4.79v-8.12a2.42,2.42,0,0,1-1.07-4.58l-3.62-7.27-4.29,2.14A2.42,2.42,0,0,1,436,315l2.53-4.07-6.91-4.28-2.52,4.07a2.41,2.41,0,0,1-4.46-1.27v-4.79h-8.13a2.41,2.41,0,0,1-4.57,1.07l-7.27,3.62,2.14,4.29a2.42,2.42,0,0,1-3.43,3.13l-4.08-2.52L395,321.1l4.07,2.52a2.42,2.42,0,0,1-1.27,4.47H393v8.12a2.41,2.41,0,0,1,1.07,4.57l3.62,7.27,4.29-2.13a2.41,2.41,0,0,1,2.86.53,2.44,2.44,0,0,1,.27,2.9l-2.53,4.07,6.91,4.28,2.52-4.08a2.41,2.41,0,0,1,4.46,1.27Zm4.07-13.45a14.08,14.08,0,1,1,14.08-14.08A14.09,14.09,0,0,1,420.53,346.23Zm0-23.34a9.26,9.26,0,1,0,9.25,9.26A9.27,9.27,0,0,0,420.53,322.89Z"/><path class="e" d="M357.48,324.73h-3.36l3-1.5-8.05-16.17-9,4.48,5.29-8.54L330,293.49,324.74,302V292H306.68v3.36l-1.5-3-16.17,8,4.48,9L285,304.09l-9.51,15.35,8.54,5.29h-10v18.06h3.36l-3,1.49,8,16.17,9-4.48L286,364.51,301.39,374l5.29-8.54v10h18.06v-3.36l1.49,3,16.17-8.05-4.48-9,8.54,5.29L356,348.08l-8.54-5.29h10.05ZM315.71,350A16.27,16.27,0,1,1,332,333.76,16.27,16.27,0,0,1,315.71,350Z"/><path class="d" d="M324.74,377.94H306.68a2.41,2.41,0,0,1-2.42-2.41V374l-.82,1.33a2.39,2.39,0,0,1-1.5,1.08,2.42,2.42,0,0,1-1.82-.29l-15.35-9.51a2.4,2.4,0,0,1-.78-3.32l.82-1.34-1.4.7a2.42,2.42,0,0,1-3.24-1.08l-8-16.17a2.37,2.37,0,0,1-.25-1.3,2.5,2.5,0,0,1-.36-1.27V324.73a2.41,2.41,0,0,1,2.42-2.41h1.56l-1.33-.83a2.41,2.41,0,0,1-.78-3.32l9.51-15.35a2.4,2.4,0,0,1,3.32-.78l1.33.82-.7-1.4a2.43,2.43,0,0,1,1.09-3.24l16.17-8a13.57,13.57,0,0,0,2.57-.61h18.06a2.41,2.41,0,0,1,2.41,2.42v1.56l.82-1.33a2.43,2.43,0,0,1,3.33-.78L346.65,301a2.41,2.41,0,0,1,.78,3.32l-.83,1.33,1.41-.7a2.41,2.41,0,0,1,3.23,1.09l8.05,16.17a2.42,2.42,0,0,1,.24,1.3,2.38,2.38,0,0,1,.36,1.27v18.06a2.41,2.41,0,0,1-2.41,2.41h-1.57l1.33.82a2.42,2.42,0,0,1,.78,3.33l-9.5,15.35a2.43,2.43,0,0,1-3.33.78l-1.33-.83.7,1.41a2.4,2.4,0,0,1-1.08,3.23l-16.17,8a2.49,2.49,0,0,1-1.3.24A2.41,2.41,0,0,1,324.74,377.94Zm-15.65-4.82h13.23v-.95a2.42,2.42,0,0,1,4.58-1.08l.42.85,11.84-5.89-3.4-6.84a2.42,2.42,0,0,1,3.44-3.12l6.48,4,7-11.25-6.49-4a2.42,2.42,0,0,1,1.27-4.47h7.64V327.14h-.95a2.41,2.41,0,0,1-1.08-4.57l.85-.42L348,310.3l-6.84,3.4a2.41,2.41,0,0,1-3.12-3.43l4-6.49-11.25-7-4,6.49a2.42,2.42,0,0,1-4.47-1.27V294.4H309.09v1a2.41,2.41,0,0,1-4.57,1.07l-.42-.85-11.85,5.9,3.4,6.83a2.42,2.42,0,0,1-3.43,3.13l-6.49-4-7,11.25,6.49,4a2.41,2.41,0,0,1-1.27,4.46h-7.63v13.23h.95a2.42,2.42,0,0,1,1.07,4.58l-.85.42,5.9,11.84,6.83-3.4a2.42,2.42,0,0,1,3.13,3.44l-4,6.48,11.25,7,4-6.49a2.41,2.41,0,0,1,4.46,1.27Zm6.62-20.68a18.69,18.69,0,1,1,18.68-18.68A18.7,18.7,0,0,1,315.71,352.44Zm0-32.54a13.86,13.86,0,1,0,13.86,13.86A13.88,13.88,0,0,0,315.71,319.9Z"/><path class="g" d="M412.33,268.21h-2.86l2.56-1.28-6.84-13.74-7.65,3.8,4.5-7.26L389,241.64l-4.49,7.27v-8.55H369.13v2.86l-1.27-2.56-13.75,6.84,3.81,7.65-7.27-4.5-8.08,13.06,7.26,4.5h-8.54v15.35h2.86l-2.56,1.28,6.84,13.74,7.65-3.8-4.5,7.26,13.05,8.08,4.5-7.26v8.54h15.36v-2.85l1.27,2.56,13.75-6.85-3.81-7.64,7.26,4.49,8.09-13.05-7.26-4.5h8.54Zm-35.52,21.51a13.84,13.84,0,1,1,13.84-13.84A13.84,13.84,0,0,1,376.81,289.72Z"/><path class="d" d="M384.49,313.46H369.13a2.05,2.05,0,0,1-2.05-2.06v-1.33l-.7,1.14a2.05,2.05,0,0,1-1.28.91,2,2,0,0,1-1.55-.25l-13.05-8.09a2,2,0,0,1-.67-2.82l.71-1.13-1.2.59a2,2,0,0,1-2.75-.92l-6.84-13.75a2.08,2.08,0,0,1-.21-1.11,2.06,2.06,0,0,1-.3-1.08V268.21a2.05,2.05,0,0,1,2.05-2.06h1.33l-1.13-.7a2,2,0,0,1-.67-2.82l8.09-13.06a2,2,0,0,1,1.27-.91,2,2,0,0,1,1.55.25l1.14.7-.6-1.19a2,2,0,0,1,.93-2.75l13.74-6.84a2.06,2.06,0,0,1,1.11-.21,2,2,0,0,1,1.08-.31h15.36a2.05,2.05,0,0,1,2.05,2.05v1.34l.7-1.14a2,2,0,0,1,2.82-.66L403.12,248a2.11,2.11,0,0,1,.92,1.28,2.06,2.06,0,0,1-.26,1.55l-.7,1.13,1.19-.59a2.06,2.06,0,0,1,2.76.92L413.87,266a2,2,0,0,1,.2,1.11,2,2,0,0,1,.31,1.08v15.35a2.05,2.05,0,0,1-2.05,2.05H411l1.13.71a2,2,0,0,1,.66,2.82l-8.08,13.05a2.06,2.06,0,0,1-2.83.67l-1.13-.7.59,1.19a2,2,0,0,1-.92,2.75l-13.75,6.84a2,2,0,0,1-1.1.21A2.12,2.12,0,0,1,384.49,313.46Zm-13.31-4.11h11.25v-.8a2.05,2.05,0,0,1,3.89-.92l.36.72,10.08-5-2.9-5.81a2.06,2.06,0,0,1,2.92-2.66l5.52,3.42,5.92-9.57-5.51-3.41a2.05,2.05,0,0,1,1.08-3.8h6.49V270.26h-.81a2.05,2.05,0,0,1-.91-3.89l.72-.36-5-10.07-5.81,2.89a2.05,2.05,0,0,1-2.66-2.92l3.41-5.52-9.56-5.92L386.23,250a2.06,2.06,0,0,1-3.8-1.08v-6.49H371.18v.8a2.05,2.05,0,0,1-3.89.91l-.36-.72-10.07,5,2.89,5.81a2,2,0,0,1-2.91,2.66l-5.52-3.42L345.39,263l5.52,3.42a2.06,2.06,0,0,1-1.08,3.8h-6.49v11.25h.81a2.05,2.05,0,0,1,.91,3.89l-.72.36,5,10.07,5.81-2.89a2.05,2.05,0,0,1,2.66,2.92l-3.42,5.52L364,307.3l3.42-5.52a2,2,0,0,1,3.79,1.08Zm5.63-17.58a15.89,15.89,0,1,1,15.89-15.89A15.91,15.91,0,0,1,376.81,291.77Zm0-27.67a11.79,11.79,0,1,0,11.78,11.78A11.8,11.8,0,0,0,376.81,264.1Z"/><path class="e" d="M272.73,230V389.57H464.21V230Zm171.61,117H292.6V272.77H444.34Z"/><path class="d" d="M464.21,392H272.73a2.41,2.41,0,0,1-2.41-2.41V230a2.41,2.41,0,0,1,2.41-2.42H464.21a2.41,2.41,0,0,1,2.41,2.42V389.57A2.41,2.41,0,0,1,464.21,392Zm-189.07-4.83H461.8V232.44H275.14Zm169.2-37.68H292.6a2.41,2.41,0,0,1-2.41-2.41V272.77a2.41,2.41,0,0,1,2.41-2.41H444.34a2.41,2.41,0,0,1,2.41,2.41v74.29A2.41,2.41,0,0,1,444.34,349.47ZM295,344.64H441.93V275.18H295Z"/><line class="e" x1="369.98" y1="87.89" x2="406.42" y2="22.17"/><path class="d" d="M370,90.3a2.35,2.35,0,0,1-1.17-.3,2.4,2.4,0,0,1-.94-3.28L404.31,21a2.41,2.41,0,1,1,4.22,2.34L372.09,89.06A2.39,2.39,0,0,1,370,90.3Z"/><path class="h" d="M422.45,19.25A15.79,15.79,0,1,0,405.64,34,15.8,15.8,0,0,0,422.45,19.25Z"/><path class="d" d="M406.71,36.41h0c-.4,0-.81,0-1.22,0a18.2,18.2,0,0,1-17-19.37,18.2,18.2,0,1,1,18.19,19.41Zm0-31.59a13.53,13.53,0,1,0,.91,0C407.27,4.83,407,4.82,406.67,4.82Z"/><line class="e" x1="314" y1="142.27" x2="349.37" y2="105.57"/><path class="d" d="M314.17,144.31a2,2,0,0,1-1.65-3.46l35.38-36.7a2,2,0,0,1,2.94,2.84l-35.37,36.7A2,2,0,0,1,314.17,144.31Z"/><line class="e" x1="313.33" y1="106.23" x2="350.03" y2="141.61"/><path class="d" d="M350.21,143.65a2.06,2.06,0,0,1-1.6-.56l-36.7-35.38a2,2,0,0,1,2.84-2.95l36.7,35.37a2,2,0,0,1-1.24,3.52Z"/><line class="e" x1="392.6" y1="140.83" x2="427.98" y2="104.13"/><path class="d" d="M392.78,142.87a2,2,0,0,1-1.65-3.46l35.37-36.7a2,2,0,1,1,2.95,2.84l-35.37,36.7A2.07,2.07,0,0,1,392.78,142.87Z"/><line class="e" x1="391.94" y1="104.79" x2="428.64" y2="140.17"/><path class="d" d="M428.81,142.21a2,2,0,0,1-1.59-.57l-36.7-35.37a2.05,2.05,0,0,1,0-2.9,2,2,0,0,1,2.89-.05l36.7,35.37a2,2,0,0,1,.05,2.9A2,2,0,0,1,428.81,142.21Z"/><rect class="c" x="323.37" y="164.04" width="87.65" height="20.88" transform="translate(12.39 -23.98) rotate(3.8)"/><path class="d" d="M410.23,190.22h-.17l-87.45-5.81a2.43,2.43,0,0,1-2.25-2.57L321.75,161a2.42,2.42,0,0,1,2.57-2.25l87.45,5.82a2.4,2.4,0,0,1,2.25,2.56L412.63,188A2.41,2.41,0,0,1,410.23,190.22Zm-84.89-10.48,82.64,5.5,1.06-16-82.64-5.49Z"/><path class="e" d="M363,369.77a27.48,27.48,0,1,1-27.47-27.47A27.47,27.47,0,0,1,363,369.77Z"/><path class="d" d="M335.51,399.66a29.89,29.89,0,1,1,29.89-29.89A29.93,29.93,0,0,1,335.51,399.66Zm0-55a25.07,25.07,0,1,0,25.06,25.06A25.09,25.09,0,0,0,335.51,344.71Z"/><path class="c" d="M355.53,377.23a27.48,27.48,0,1,1-27.48-27.48A27.48,27.48,0,0,1,355.53,377.23Z"/><path class="d" d="M328.05,407.12a29.89,29.89,0,1,1,29.89-29.89A29.93,29.93,0,0,1,328.05,407.12Zm0-54.95a25.07,25.07,0,1,0,25.06,25.06A25.09,25.09,0,0,0,328.05,352.17Z"/><path class="i" d="M349.3,383.46A27.48,27.48,0,1,1,321.82,356,27.48,27.48,0,0,1,349.3,383.46Z"/><path class="d" d="M321.82,413.35a29.89,29.89,0,1,1,29.89-29.89A29.93,29.93,0,0,1,321.82,413.35Zm0-55a25.07,25.07,0,1,0,25.07,25.07A25.09,25.09,0,0,0,321.82,358.39Z"/><path class="j" d="M343.18,389.57a27.48,27.48,0,1,1-27.47-27.47A27.47,27.47,0,0,1,343.18,389.57Z"/><path class="d" d="M315.71,419.46a29.89,29.89,0,1,1,29.89-29.89A29.93,29.93,0,0,1,315.71,419.46Zm0-54.95a25.07,25.07,0,1,0,25.06,25.06A25.09,25.09,0,0,0,315.71,364.51Z"/><circle class="e" cx="396.83" cy="368.81" r="27.48" transform="translate(-144.56 388.62) rotate(-45)"/><path class="d" d="M396.83,398.7a29.89,29.89,0,1,1,29.89-29.89A29.93,29.93,0,0,1,396.83,398.7Zm0-54.95a25.06,25.06,0,1,0,25.06,25.06A25.09,25.09,0,0,0,396.83,343.75Z"/><path class="c" d="M376.81,376.27a27.48,27.48,0,1,0,27.48-27.48A27.47,27.47,0,0,0,376.81,376.27Z"/><path class="d" d="M404.29,406.16a29.89,29.89,0,1,1,29.89-29.89A29.92,29.92,0,0,1,404.29,406.16Zm0-55a25.07,25.07,0,1,0,25.06,25.07A25.1,25.1,0,0,0,404.29,351.2Z"/><path class="i" d="M383,382.49A27.48,27.48,0,1,0,410.51,355,27.47,27.47,0,0,0,383,382.49Z"/><path class="d" d="M410.51,412.38a29.89,29.89,0,1,1,29.89-29.89A29.93,29.93,0,0,1,410.51,412.38Zm0-54.95a25.07,25.07,0,1,0,25.07,25.06A25.09,25.09,0,0,0,410.51,357.43Z"/><path class="j" d="M389.15,388.61a27.48,27.48,0,1,0,27.48-27.48A27.48,27.48,0,0,0,389.15,388.61Z"/><path class="d" d="M416.63,418.5a29.89,29.89,0,1,1,29.89-29.89A29.93,29.93,0,0,1,416.63,418.5Zm0-55a25.07,25.07,0,1,0,25.06,25.07A25.1,25.1,0,0,0,416.63,363.54Z"/><rect class="c" x="260.62" y="309.8" width="59.28" height="106.79"/><path class="d" d="M319.9,419H260.62a2.41,2.41,0,0,1-2.41-2.41V309.8a2.41,2.41,0,0,1,2.41-2.42H319.9a2.41,2.41,0,0,1,2.41,2.42V416.59A2.41,2.41,0,0,1,319.9,419ZM263,414.18h54.45v-102H263Z"/><rect class="e" x="249.04" y="309.8" width="59.28" height="106.79"/><path class="d" d="M308.32,419H249a2.41,2.41,0,0,1-2.41-2.41V309.8a2.41,2.41,0,0,1,2.41-2.42h59.28a2.41,2.41,0,0,1,2.41,2.42V416.59A2.41,2.41,0,0,1,308.32,419Zm-56.87-4.82H305.9v-102H251.45Z"/><rect class="c" x="410.8" y="309.8" width="59.28" height="106.79" transform="translate(880.89 726.39) rotate(180)"/><path class="d" d="M470.08,419H410.8a2.41,2.41,0,0,1-2.41-2.41V309.8a2.41,2.41,0,0,1,2.41-2.42h59.28a2.41,2.41,0,0,1,2.41,2.42V416.59A2.41,2.41,0,0,1,470.08,419Zm-56.86-4.82h54.45v-102H413.22Z"/><rect class="e" x="422.39" y="309.8" width="59.28" height="106.79" transform="translate(904.05 726.39) rotate(180)"/><path class="d" d="M481.66,419H422.39a2.41,2.41,0,0,1-2.42-2.41V309.8a2.42,2.42,0,0,1,2.42-2.42h59.27a2.42,2.42,0,0,1,2.42,2.42V416.59A2.41,2.41,0,0,1,481.66,419Zm-56.86-4.82h54.45v-102H424.8Z"/><path class="k" d="M310.17,251.58a9.6,9.6,0,1,0-9.6,9.6A9.59,9.59,0,0,0,310.17,251.58Z"/><path class="d" d="M300.57,263.59a12,12,0,1,1,12-12A12,12,0,0,1,300.57,263.59Zm0-19.2a7.19,7.19,0,1,0,7.19,7.19A7.2,7.2,0,0,0,300.57,244.39Z"/><circle class="k" cx="329.5" cy="251.58" r="9.6"/><path class="d" d="M329.5,263.59a12,12,0,1,1,12-12A12,12,0,0,1,329.5,263.59Zm0-19.2a7.19,7.19,0,1,0,7.19,7.19A7.2,7.2,0,0,0,329.5,244.39Z"/><path class="k" d="M368,251.58a9.61,9.61,0,1,0-9.61,9.6A9.6,9.6,0,0,0,368,251.58Z"/><path class="d" d="M358.42,263.59a12,12,0,1,1,12-12A12,12,0,0,1,358.42,263.59Zm0-19.2a7.19,7.19,0,1,0,7.19,7.19A7.19,7.19,0,0,0,358.42,244.39Z"/></g></svg>