<svg xmlns="http://www.w3.org/2000/svg" viewBox="0 0 364.15 419.46"><defs><style>.a{fill:#d1d3d4;}.b{fill:#231f20;}.c{fill:#fff;}.d{fill:#808285;}.e{fill:#414042;}.f{fill:#ef4133;}.g{fill:#bcbec0;}.h{fill:#a7a9ac;}.i{fill:#f7941e;}</style></defs><title>robo-dead</title><rect class="a" x="151.5" y="195.57" width="69.36" height="39.57"/><path class="b" d="M220.87,237.55H151.5a2.41,2.41,0,0,1-2.41-2.41V195.57a2.41,2.41,0,0,1,2.41-2.41h69.37a2.41,2.41,0,0,1,2.41,2.41v39.57A2.41,2.41,0,0,1,220.87,237.55Zm-67-4.82h64.54V198H153.91Z"/><rect class="a" x="89.76" y="83.23" width="191.48" height="124.79" transform="translate(10.07 -11.99) rotate(3.8)"/><path class="b" d="M276.9,216.65h-.17l-191-12.71a2.38,2.38,0,0,1-1.66-.82,2.42,2.42,0,0,1-.59-1.74L91.71,76.86a2.41,2.41,0,0,1,2.57-2.25L285.34,87.32a2.4,2.4,0,0,1,2.24,2.56L279.3,214.4A2.4,2.4,0,0,1,276.9,216.65ZM88.4,199.29l186.25,12.38,8-119.7L96.36,79.59Z"/><polygon class="c" points="262.34 194.23 88.52 197.46 96.36 79.58 283.93 92.05 262.34 194.23"/><path class="a" d="M46,398l-.69,1.54a22.48,22.48,0,0,1-29.61,11.32h0A22.49,22.49,0,0,1,4.36,381.19l.69-1.53a22.48,22.48,0,0,1,29.61-11.32h0A22.48,22.48,0,0,1,46,398Z"/><path class="b" d="M24.76,415.16a24.85,24.85,0,0,1-22.6-35l.69-1.54A24.89,24.89,0,0,1,25.58,364a24.5,24.5,0,0,1,10.07,2.15,24.85,24.85,0,0,1,12.53,32.8l-.68,1.53A24.9,24.9,0,0,1,24.76,415.16Zm.82-46.35A20.09,20.09,0,0,0,7.25,380.64l-.68,1.54a20,20,0,0,0,18.19,28.16A20.07,20.07,0,0,0,43.09,398.5l.69-1.53a20,20,0,0,0-10.1-26.43A19.72,19.72,0,0,0,25.58,368.81Z"/><path class="c" d="M65.38,368.62h0a23.34,23.34,0,0,1-30.73,11.74l-4.74-2.12a23.33,23.33,0,0,1-11.74-30.73h0a23.33,23.33,0,0,1,30.72-11.74l4.74,2.12A23.33,23.33,0,0,1,65.38,368.62Z"/><path class="b" d="M44.08,384.78a25.26,25.26,0,0,1-10.41-2.22l-4.75-2.12a25.75,25.75,0,0,1-13-33.91,25.75,25.75,0,0,1,23.51-15.19,25.3,25.3,0,0,1,10.41,2.23l4.74,2.12a25.66,25.66,0,0,1-10.54,49.09Zm-4.61-48.61a20.92,20.92,0,0,0-19.1,12.33A20.91,20.91,0,0,0,30.89,376l4.75,2.12A20.46,20.46,0,0,0,44.08,380a20.85,20.85,0,0,0,8.57-39.87L47.91,338A20.68,20.68,0,0,0,39.47,336.17Z"/><path class="c" d="M72.72,352.18h0A23.32,23.32,0,0,1,42,363.92l-4.74-2.12a23.32,23.32,0,0,1-11.75-30.72h0a23.33,23.33,0,0,1,30.73-11.74L61,321.46A23.32,23.32,0,0,1,72.72,352.18Z"/><path class="b" d="M51.42,368.35A25.3,25.3,0,0,1,41,366.12L36.27,364a25.66,25.66,0,0,1,10.54-49.09,25.42,25.42,0,0,1,10.41,2.22L62,319.25a25.75,25.75,0,0,1,13,33.91A25.75,25.75,0,0,1,51.42,368.35Zm-4.61-48.62a20.84,20.84,0,0,0-8.57,39.87L43,361.72a20.52,20.52,0,0,0,8.44,1.8,20.92,20.92,0,0,0,19.1-12.33A20.92,20.92,0,0,0,60,323.66l-4.75-2.12A20.46,20.46,0,0,0,46.81,319.73Z"/><path class="c" d="M80.07,335.74h0a23.33,23.33,0,0,1-30.72,11.75l-4.75-2.12a23.33,23.33,0,0,1-11.74-30.73h0A23.32,23.32,0,0,1,63.58,302.9L68.33,305A23.32,23.32,0,0,1,80.07,335.74Z"/><path class="b" d="M58.77,351.91a25.42,25.42,0,0,1-10.41-2.22l-4.74-2.12A25.67,25.67,0,0,1,64.57,300.7l4.74,2.12a25.66,25.66,0,0,1-10.54,49.09ZM54.16,303.3a20.93,20.93,0,0,0-19.1,12.33,20.92,20.92,0,0,0,10.53,27.53l4.74,2.12a20.53,20.53,0,0,0,8.44,1.81,20.84,20.84,0,0,0,8.57-39.87L62.6,305.1A20.68,20.68,0,0,0,54.16,303.3Z"/><path class="c" d="M87.42,319.31h0a23.33,23.33,0,0,1-30.73,11.74L52,328.93a23.32,23.32,0,0,1-11.74-30.72h0a23.32,23.32,0,0,1,30.72-11.75l4.74,2.12A23.33,23.33,0,0,1,87.42,319.31Z"/><path class="b" d="M66.12,335.48a25.27,25.27,0,0,1-10.41-2.23L51,331.13A25.66,25.66,0,0,1,61.51,282a25.33,25.33,0,0,1,10.41,2.22l4.74,2.12a25.67,25.67,0,0,1-10.54,49.1Zm-4.61-48.62a20.84,20.84,0,0,0-8.58,39.87l4.75,2.12a20.61,20.61,0,0,0,8.44,1.8,20.84,20.84,0,0,0,8.57-39.86L70,288.67A20.53,20.53,0,0,0,61.51,286.86Z"/><path class="c" d="M94.76,302.87h0A23.32,23.32,0,0,1,64,314.61l-4.74-2.12a23.32,23.32,0,0,1-11.75-30.72h0A23.33,23.33,0,0,1,78.28,270L83,272.15A23.32,23.32,0,0,1,94.76,302.87Z"/><path class="b" d="M73.46,319a25.45,25.45,0,0,1-10.41-2.22l-4.74-2.12a25.67,25.67,0,0,1,21-46.88L84,269.94A25.66,25.66,0,0,1,73.46,319Zm-4.61-48.61a20.91,20.91,0,0,0-19.09,12.32,20.91,20.91,0,0,0,10.52,27.54L65,312.41a20.52,20.52,0,0,0,8.44,1.8A20.84,20.84,0,0,0,82,274.35l-4.75-2.12A20.45,20.45,0,0,0,68.85,270.43Z"/><path class="c" d="M102.11,286.43h0a23.33,23.33,0,0,1-30.72,11.75l-4.75-2.12A23.33,23.33,0,0,1,54.9,265.33h0a23.33,23.33,0,0,1,30.72-11.74l4.75,2.12A23.32,23.32,0,0,1,102.11,286.43Z"/><path class="b" d="M80.81,302.6a25.26,25.26,0,0,1-10.41-2.22l-4.74-2.12a25.67,25.67,0,0,1,10.54-49.1,25.27,25.27,0,0,1,10.41,2.23l4.74,2.12A25.66,25.66,0,0,1,80.81,302.6ZM76.2,254a20.83,20.83,0,0,0-8.57,39.86L72.37,296a20.53,20.53,0,0,0,8.44,1.81,20.93,20.93,0,0,0,19.1-12.33,20.92,20.92,0,0,0-10.53-27.54l-4.74-2.12A20.68,20.68,0,0,0,76.2,254Z"/><path class="c" d="M109.46,270h0a23.33,23.33,0,0,1-30.73,11.74L74,279.62A23.32,23.32,0,0,1,62.25,248.9h0A23.31,23.31,0,0,1,93,237.16l4.74,2.11A23.34,23.34,0,0,1,109.46,270Z"/><path class="b" d="M88.16,286.17a25.27,25.27,0,0,1-10.41-2.23L73,281.82a25.75,25.75,0,0,1-13-33.91,25.76,25.76,0,0,1,23.51-15.18A25.49,25.49,0,0,1,94,235l4.74,2.12a25.67,25.67,0,0,1-10.54,49.1Zm-4.61-48.62a20.92,20.92,0,0,0-19.1,12.33A20.93,20.93,0,0,0,75,277.42l4.75,2.12a20.45,20.45,0,0,0,8.44,1.8,20.84,20.84,0,0,0,8.57-39.86L92,239.36A20.53,20.53,0,0,0,83.55,237.55Z"/><path class="a" d="M318.17,398l.68,1.54a22.49,22.49,0,0,0,29.62,11.32h0a22.48,22.48,0,0,0,11.31-29.62l-.68-1.53a22.49,22.49,0,0,0-29.62-11.32h0A22.48,22.48,0,0,0,318.17,398Z"/><path class="b" d="M339.38,415.16h0a24.89,24.89,0,0,1-22.73-14.69l-.69-1.53a24.86,24.86,0,0,1,12.54-32.8A24.46,24.46,0,0,1,338.57,364a24.9,24.9,0,0,1,22.73,14.68l.69,1.54a24.81,24.81,0,0,1-22.61,35Zm-.81-46.35a19.69,19.69,0,0,0-8.1,1.73A20,20,0,0,0,320.37,397l.69,1.53a20.06,20.06,0,0,0,18.32,11.84,20,20,0,0,0,18.2-28.16l-.69-1.54A20.07,20.07,0,0,0,338.57,368.81Z"/><path class="c" d="M298.77,368.62h0a23.34,23.34,0,0,0,30.73,11.74l4.74-2.12A23.33,23.33,0,0,0,346,347.51h0a23.33,23.33,0,0,0-30.72-11.74l-4.75,2.12A23.34,23.34,0,0,0,298.77,368.62Z"/><path class="b" d="M320.07,384.78h0a25.66,25.66,0,0,1-10.54-49.09l4.74-2.12a25.27,25.27,0,0,1,10.41-2.23,25.63,25.63,0,0,1,24,34.82,25.48,25.48,0,0,1-13.48,14.28l-4.74,2.12A25.26,25.26,0,0,1,320.07,384.78Zm4.61-48.61a20.68,20.68,0,0,0-8.44,1.8l-4.74,2.12A20.84,20.84,0,0,0,320.07,380h0a20.53,20.53,0,0,0,8.44-1.81l4.74-2.12a20.91,20.91,0,0,0,10.53-27.53A20.93,20.93,0,0,0,324.68,336.17Z"/><path class="c" d="M291.42,352.18h0a23.33,23.33,0,0,0,30.73,11.74l4.74-2.12a23.32,23.32,0,0,0,11.74-30.72h0a23.32,23.32,0,0,0-30.72-11.74l-4.74,2.12A23.32,23.32,0,0,0,291.42,352.18Z"/><path class="b" d="M312.73,368.35h0a25.67,25.67,0,0,1-10.54-49.1l4.75-2.12a25.41,25.41,0,0,1,10.4-2.22A25.66,25.66,0,0,1,327.88,364l-4.75,2.12A25.26,25.26,0,0,1,312.73,368.35Zm4.6-48.62a20.53,20.53,0,0,0-8.44,1.81l-4.74,2.12a20.84,20.84,0,0,0,8.57,39.86h0a20.44,20.44,0,0,0,8.43-1.8l4.75-2.12a20.84,20.84,0,0,0-8.58-39.87Z"/><path class="c" d="M284.08,335.74h0a23.32,23.32,0,0,0,30.72,11.75l4.74-2.12a23.33,23.33,0,0,0,11.75-30.73h0a23.33,23.33,0,0,0-30.73-11.74L295.82,305A23.32,23.32,0,0,0,284.08,335.74Z"/><path class="b" d="M305.38,351.91h0a25.66,25.66,0,0,1-10.54-49.09l4.74-2.12A25.27,25.27,0,0,1,310,298.47a25.68,25.68,0,0,1,10.54,49.1l-4.74,2.12A25.45,25.45,0,0,1,305.38,351.91ZM310,303.3a20.61,20.61,0,0,0-8.44,1.8l-4.75,2.12a20.84,20.84,0,0,0,8.58,39.87h0a20.53,20.53,0,0,0,8.44-1.81l4.74-2.12A20.84,20.84,0,0,0,310,303.3Z"/><path class="c" d="M276.73,319.31h0a23.33,23.33,0,0,0,30.73,11.74l4.74-2.12a23.32,23.32,0,0,0,11.74-30.72h0a23.33,23.33,0,0,0-30.72-11.75l-4.75,2.12A23.34,23.34,0,0,0,276.73,319.31Z"/><path class="b" d="M298,335.48h0a25.77,25.77,0,0,1-23.5-15.19,25.73,25.73,0,0,1,13-33.91l4.74-2.12A25.26,25.26,0,0,1,302.64,282a25.66,25.66,0,0,1,10.54,49.09l-4.74,2.12A25.27,25.27,0,0,1,298,335.48Zm4.61-48.62a20.53,20.53,0,0,0-8.44,1.81l-4.74,2.12A20.83,20.83,0,0,0,298,330.65h0a20.68,20.68,0,0,0,8.44-1.8l4.74-2.12a20.84,20.84,0,0,0-8.57-39.87Z"/><path class="c" d="M269.38,302.87h0a23.33,23.33,0,0,0,30.73,11.74l4.74-2.12a23.32,23.32,0,0,0,11.74-30.72h0A23.32,23.32,0,0,0,285.87,270l-4.74,2.12A23.32,23.32,0,0,0,269.38,302.87Z"/><path class="b" d="M290.69,319h0a25.67,25.67,0,0,1-10.54-49.1l4.75-2.12a25.41,25.41,0,0,1,10.4-2.22,25.75,25.75,0,0,1,23.51,15.19,25.76,25.76,0,0,1-13,33.91l-4.75,2.12A25.41,25.41,0,0,1,290.69,319Zm4.6-48.61a20.52,20.52,0,0,0-8.44,1.8l-4.74,2.12a20.84,20.84,0,0,0,8.57,39.86h0a20.44,20.44,0,0,0,8.43-1.8l4.75-2.12a20.84,20.84,0,0,0-8.58-39.86Z"/><path class="c" d="M262,286.43h0a23.32,23.32,0,0,0,30.72,11.75l4.74-2.12a23.33,23.33,0,0,0,11.75-30.73h0a23.34,23.34,0,0,0-30.73-11.74l-4.74,2.12A23.32,23.32,0,0,0,262,286.43Z"/><path class="b" d="M283.34,302.6h0a25.66,25.66,0,0,1-10.54-49.09l4.74-2.12A25.27,25.27,0,0,1,288,249.16a25.67,25.67,0,0,1,10.54,49.1l-4.74,2.12A25.29,25.29,0,0,1,283.34,302.6ZM288,254a20.61,20.61,0,0,0-8.44,1.8l-4.75,2.12a20.84,20.84,0,0,0,8.58,39.87h0a20.53,20.53,0,0,0,8.44-1.81l4.74-2.12A20.84,20.84,0,0,0,288,254Z"/><path class="c" d="M254.69,270h0a23.33,23.33,0,0,0,30.73,11.74l4.74-2.12A23.32,23.32,0,0,0,301.9,248.9h0a23.31,23.31,0,0,0-30.72-11.74l-4.75,2.11A23.34,23.34,0,0,0,254.69,270Z"/><path class="b" d="M276,286.17h0a25.67,25.67,0,0,1-10.54-49.1l4.74-2.12a25.42,25.42,0,0,1,10.41-2.22,25.62,25.62,0,0,1,24,34.81,25.45,25.45,0,0,1-13.48,14.28l-4.74,2.12A25.27,25.27,0,0,1,276,286.17Zm4.61-48.62a20.53,20.53,0,0,0-8.44,1.81l-4.74,2.12A20.83,20.83,0,0,0,276,281.34h0a20.52,20.52,0,0,0,8.44-1.8l4.74-2.12a20.92,20.92,0,0,0,10.53-27.54A20.93,20.93,0,0,0,280.6,237.55Z"/><rect class="d" x="103.25" y="263.77" width="164.24" height="92.29"/><path class="b" d="M267.49,358.86H103.25a2.8,2.8,0,0,1-2.8-2.8V263.77a2.8,2.8,0,0,1,2.8-2.8H267.49a2.79,2.79,0,0,1,2.79,2.8v92.29A2.8,2.8,0,0,1,267.49,358.86ZM106,353.26H264.69V266.57H106Z"/><path class="c" d="M267.37,325.67H265l2.16-1.07L261.35,313l-6.45,3.21,3.79-6.13-11-6.81-3.8,6.12v-7.2H231v2.41l-1.08-2.16-11.59,5.77,3.21,6.45-6.12-3.8-6.82,11,6.12,3.79h-7.2v12.95h2.41l-2.16,1.07,5.77,11.6,6.45-3.21-3.79,6.12,11,6.82,3.8-6.13v7.21h12.94v-2.41l1.08,2.15,11.59-5.76-3.21-6.45,6.12,3.79,6.82-11-6.12-3.79h7.2Zm-30,18.14a11.67,11.67,0,1,1,11.67-11.66A11.67,11.67,0,0,1,237.42,343.81Z"/><path class="b" d="M243.89,364.51H231a2.41,2.41,0,0,1-2.28-1.61,2.61,2.61,0,0,1-1,.47,2.45,2.45,0,0,1-1.83-.3l-11-6.82a2.41,2.41,0,0,1-1.09-2.57,2.41,2.41,0,0,1-2.46-1.32l-5.77-11.59a2.44,2.44,0,0,1-.25-1.08,2.37,2.37,0,0,1-.25-1.07V325.67a2.4,2.4,0,0,1,1.61-2.27,2.58,2.58,0,0,1-.47-1,2.42,2.42,0,0,1,.3-1.82l6.82-11a2.41,2.41,0,0,1,2.57-1.08,2.38,2.38,0,0,1,1.32-2.46l11.59-5.77a2.37,2.37,0,0,1,1.07-.25,2.46,2.46,0,0,1,1.08-.26h12.94a2.42,2.42,0,0,1,2.28,1.62,2.33,2.33,0,0,1,1-.47,2.44,2.44,0,0,1,1.83.29L260,308a2.41,2.41,0,0,1,1.07,1.5,2.28,2.28,0,0,1,0,1.07,2.43,2.43,0,0,1,2.46,1.32l5.77,11.59a537.76,537.76,0,0,0,.5,2.15v12.95a2.42,2.42,0,0,1-1.61,2.28,2.39,2.39,0,0,1,.17,2.78l-6.81,11a2.43,2.43,0,0,1-2.58,1.09,2.39,2.39,0,0,1-.1,1.06,2.46,2.46,0,0,1-1.21,1.4L246,364a2.28,2.28,0,0,1-1.07.26A2.42,2.42,0,0,1,243.89,364.51Zm-10.53-4.83h8.12a2.41,2.41,0,0,1,4.57-1.07l7.27-3.62-2.13-4.29a2.41,2.41,0,0,1,3.43-3.12l4.07,2.52,4.28-6.91-4.07-2.52a2.41,2.41,0,0,1,1.27-4.46H265v-8.12a2.42,2.42,0,0,1-1.08-4.58l-3.62-7.27L256,318.38a2.42,2.42,0,0,1-3.13-3.43l2.52-4.07-6.9-4.28L246,310.67a2.42,2.42,0,0,1-4.47-1.27v-4.79h-8.12a2.41,2.41,0,0,1-4.57,1.07l-7.27,3.62,2.13,4.29a2.41,2.41,0,0,1-3.43,3.13l-4.07-2.52-4.28,6.9,4.07,2.52a2.42,2.42,0,0,1-1.27,4.47h-4.78v8.12a2.41,2.41,0,0,1,1.07,4.57l3.62,7.27,4.29-2.13a2.41,2.41,0,0,1,3.12,3.43l-2.52,4.07,6.9,4.28,2.53-4.08a2.41,2.41,0,0,1,4.46,1.27Zm4.06-13.45a14.08,14.08,0,1,1,14.08-14.08A14.1,14.1,0,0,1,237.42,346.23Zm0-23.34a9.26,9.26,0,1,0,9.26,9.26A9.26,9.26,0,0,0,237.42,322.89Z"/><path class="c" d="M174.37,324.73H171l3-1.5-8-16.17-9,4.48,5.29-8.54-15.35-9.51L141.63,302V292H123.57v3.36l-1.49-3-16.17,8,4.48,9-8.54-5.29-9.51,15.35,8.54,5.29h-10v18.06h3.36l-3,1.49,8,16.17,9-4.48-5.29,8.54L118.28,374l5.29-8.54v10h18.06v-3.36l1.5,3,16.17-8.05-4.48-9,8.54,5.29,9.51-15.35-8.54-5.29h10ZM132.6,350a16.27,16.27,0,1,1,16.28-16.27A16.28,16.28,0,0,1,132.6,350Z"/><path class="b" d="M141.63,377.94H123.57a2.41,2.41,0,0,1-2.41-2.41V374l-.82,1.33a2.39,2.39,0,0,1-1.5,1.08,2.45,2.45,0,0,1-1.83-.29l-15.35-9.51a2.41,2.41,0,0,1-.78-3.32l.83-1.34-1.41.7a2.41,2.41,0,0,1-3.23-1.08l-8-16.17a2.46,2.46,0,0,1-.24-1.3,2.41,2.41,0,0,1-.36-1.27V324.73a2.41,2.41,0,0,1,2.41-2.41H92.4l-1.33-.83a2.4,2.4,0,0,1-.78-3.32l9.5-15.35a2.41,2.41,0,0,1,3.33-.78l1.33.82-.7-1.4a2.42,2.42,0,0,1,1.09-3.24l16.16-8a2.46,2.46,0,0,1,1.3-.24,2.42,2.42,0,0,1,1.27-.37h18.06a2.42,2.42,0,0,1,2.42,2.42v1.56l.82-1.33a2.41,2.41,0,0,1,3.32-.78L163.54,301a2.34,2.34,0,0,1,1.08,1.5,2.42,2.42,0,0,1-.29,1.82l-.83,1.33,1.4-.7a2.43,2.43,0,0,1,3.24,1.09l8,16.17a2.34,2.34,0,0,1,.25,1.3,2.47,2.47,0,0,1,.36,1.27v18.06a2.41,2.41,0,0,1-2.42,2.41h-1.56l1.33.82a2.42,2.42,0,0,1,.78,3.33l-9.51,15.35a2.41,2.41,0,0,1-3.32.78l-1.33-.83.7,1.41a2.42,2.42,0,0,1-1.09,3.23l-16.17,8a2.46,2.46,0,0,1-1.3.24A2.36,2.36,0,0,1,141.63,377.94ZM126,373.12h13.23v-.95a2.41,2.41,0,0,1,4.57-1.08l.42.85,11.85-5.89-3.4-6.84a2.41,2.41,0,0,1,3.43-3.12l6.49,4,7-11.25-6.49-4a2.42,2.42,0,0,1,1.27-4.47H172V327.14h-1a2.41,2.41,0,0,1-1.07-4.57l.85-.42-5.9-11.85-6.83,3.4a2.41,2.41,0,0,1-3.13-3.43l4-6.49-11.25-7-4,6.49a2.41,2.41,0,0,1-4.46-1.27V294.4H126v1a2.42,2.42,0,0,1-4.58,1.07l-.42-.85-11.84,5.9,3.4,6.83a2.42,2.42,0,0,1-3.44,3.13l-6.48-4-7,11.25,6.49,4a2.41,2.41,0,0,1-1.27,4.46H93.24v13.23h1A2.42,2.42,0,0,1,95.27,345l-.85.42,5.89,11.84,6.84-3.4a2.41,2.41,0,0,1,3.12,3.44l-4,6.48,11.25,7,4-6.49a2.42,2.42,0,0,1,4.47,1.27Zm6.61-20.68a18.69,18.69,0,1,1,18.69-18.68A18.7,18.7,0,0,1,132.6,352.44Zm0-32.54a13.86,13.86,0,1,0,13.86,13.86A13.88,13.88,0,0,0,132.6,319.9Z"/><path class="e" d="M229.22,268.21h-2.85l2.56-1.28-6.85-13.74-7.64,3.8,4.49-7.26-13.05-8.09-4.5,7.27v-8.55H186v2.86l-1.28-2.56L171,247.5l3.8,7.65-7.26-4.5-8.09,13.06,7.27,4.5h-8.55v15.35H161l-2.56,1.28,6.84,13.74,7.65-3.8-4.5,7.26,13.06,8.08,4.5-7.26v8.54h15.35v-2.85l1.28,2.56,13.74-6.85-3.8-7.64,7.26,4.49,8.08-13.05-7.26-4.5h8.54ZM193.7,289.72a13.84,13.84,0,1,1,13.84-13.84A13.83,13.83,0,0,1,193.7,289.72Z"/><path class="b" d="M201.38,313.46H186A2.06,2.06,0,0,1,184,311.4v-1.33l-.7,1.14a2.06,2.06,0,0,1-2.82.66l-13.06-8.09a2,2,0,0,1-.66-2.82l.7-1.13-1.19.59a2,2,0,0,1-2.75-.92l-6.84-13.75a12.18,12.18,0,0,0-.52-2.19V268.21a2.05,2.05,0,0,1,2.05-2.06h1.34l-1.14-.7a2,2,0,0,1-.66-2.82l8.09-13.06a2.06,2.06,0,0,1,2.82-.66l1.13.7-.59-1.19a2.09,2.09,0,0,1-.11-1.57,2,2,0,0,1,1-1.18l13.75-6.84a12.74,12.74,0,0,0,2.19-.52h15.35a2.05,2.05,0,0,1,2.05,2.05v1.34l.71-1.14a2,2,0,0,1,2.82-.66L220,248a2,2,0,0,1,.92,1.28,2,2,0,0,1-.25,1.55l-.7,1.13,1.19-.59a2,2,0,0,1,2.75.92L230.76,266a2.12,2.12,0,0,1,.21,1.11,2.07,2.07,0,0,1,.31,1.08v15.35a2.05,2.05,0,0,1-2.06,2.05h-1.33l1.13.71a2,2,0,0,1,.67,2.82l-8.09,13.05a2,2,0,0,1-1.27.92,2,2,0,0,1-1.55-.25l-1.13-.7.59,1.19a2.05,2.05,0,0,1-.92,2.75l-13.75,6.84a12.18,12.18,0,0,0-2.19.52Zm-13.3-4.11h11.25v-.8a2.05,2.05,0,0,1,3.89-.92l.36.72,10.07-5-2.89-5.81a2.06,2.06,0,0,1,2.92-2.66l5.52,3.42,5.92-9.57-5.52-3.41a2.06,2.06,0,0,1,1.08-3.8h6.49V270.26h-.8a2.05,2.05,0,0,1-.92-3.89l.73-.36-5-10.07-5.81,2.89a2.06,2.06,0,0,1-2.66-2.92l3.42-5.52-9.57-5.92L203.13,250a2.06,2.06,0,0,1-3.8-1.08v-6.49H188.08v.8a2.05,2.05,0,0,1-3.89.91l-.36-.72-10.07,5,2.89,5.81a2.06,2.06,0,0,1-2.92,2.66l-5.52-3.42L162.29,263l5.52,3.42a2.06,2.06,0,0,1-1.08,3.8h-6.49v11.25h.8a2.05,2.05,0,0,1,.92,3.89l-.73.36,5,10.07,5.81-2.89a2.05,2.05,0,0,1,2.66,2.92l-3.42,5.52,9.56,5.92,3.42-5.52a2.06,2.06,0,0,1,3.8,1.08Zm5.62-17.58a15.89,15.89,0,1,1,15.89-15.89A15.9,15.9,0,0,1,193.7,291.77Zm0-27.67a11.79,11.79,0,1,0,11.79,11.78A11.8,11.8,0,0,0,193.7,264.1Z"/><path class="c" d="M89.63,230V389.57H281.11V230Zm171.6,117H109.5V272.77H261.23Z"/><path class="b" d="M281.11,392H89.63a2.41,2.41,0,0,1-2.42-2.41V230a2.42,2.42,0,0,1,2.42-2.42H281.11a2.41,2.41,0,0,1,2.41,2.42V389.57A2.41,2.41,0,0,1,281.11,392ZM92,387.15H278.69V232.44H92Zm169.19-37.68H109.5a2.41,2.41,0,0,1-2.42-2.41V272.77a2.41,2.41,0,0,1,2.42-2.41H261.23a2.41,2.41,0,0,1,2.42,2.41v74.29A2.41,2.41,0,0,1,261.23,349.47Zm-149.32-4.83H258.82V275.18H111.91Z"/><line class="c" x1="186.88" y1="87.89" x2="223.32" y2="22.17"/><path class="b" d="M186.87,90.3a2.34,2.34,0,0,1-1.16-.3,2.41,2.41,0,0,1-1-3.28L221.21,21a2.41,2.41,0,0,1,4.22,2.34L189,89.06A2.41,2.41,0,0,1,186.87,90.3Z"/><path class="f" d="M239.34,19.25A15.79,15.79,0,1,0,222.54,34,15.79,15.79,0,0,0,239.34,19.25Z"/><path class="b" d="M223.6,36.41h0c-.41,0-.81,0-1.22,0a18.2,18.2,0,1,1,1.22,0Zm0-31.59a13.53,13.53,0,1,0,.9,0C224.17,4.83,223.87,4.82,223.57,4.82Z"/><line class="c" x1="130.89" y1="142.27" x2="166.27" y2="105.57"/><path class="b" d="M131.06,144.31a2,2,0,0,1-1.64-3.46l35.37-36.7a2,2,0,0,1,3,2.84l-35.37,36.7A2,2,0,0,1,131.06,144.31Z"/><line class="c" x1="130.23" y1="106.23" x2="166.93" y2="141.61"/><path class="b" d="M167.1,143.65a2,2,0,0,1-1.59-.56l-36.7-35.38a2,2,0,1,1,2.84-2.95l36.7,35.37a2.05,2.05,0,0,1-1.25,3.52Z"/><line class="c" x1="209.5" y1="140.83" x2="244.87" y2="104.13"/><path class="b" d="M209.67,142.87a2,2,0,0,1-1.59-.57,2,2,0,0,1-.06-2.89l35.38-36.7a2,2,0,1,1,2.95,2.84L211,142.25A2,2,0,0,1,209.67,142.87Z"/><line class="c" x1="208.84" y1="104.79" x2="245.54" y2="140.17"/><path class="b" d="M245.71,142.21a2,2,0,0,1-1.6-.57l-36.69-35.37a2,2,0,1,1,2.84-3L247,138.69a2.05,2.05,0,0,1-1.25,3.52Z"/><rect class="a" x="140.26" y="164.04" width="87.65" height="20.88" transform="translate(11.98 -11.83) rotate(3.8)"/><path class="b" d="M227.12,190.22H227l-87.45-5.81a2.41,2.41,0,0,1-2.25-2.57L138.65,161a2.41,2.41,0,0,1,2.56-2.25l87.46,5.82a2.4,2.4,0,0,1,2.24,2.56L229.53,188A2.42,2.42,0,0,1,227.12,190.22Zm-84.89-10.48,82.64,5.5,1.07-16-82.64-5.49Z"/><path class="c" d="M179.88,369.77A27.48,27.48,0,1,1,152.4,342.3,27.48,27.48,0,0,1,179.88,369.77Z"/><path class="b" d="M152.4,399.66a29.89,29.89,0,1,1,29.89-29.89A29.93,29.93,0,0,1,152.4,399.66Zm0-55a25.07,25.07,0,1,0,25.07,25.06A25.09,25.09,0,0,0,152.4,344.71Z"/><path class="a" d="M172.42,377.23A27.48,27.48,0,1,1,145,349.75,27.47,27.47,0,0,1,172.42,377.23Z"/><path class="b" d="M145,407.12a29.89,29.89,0,1,1,29.89-29.89A29.92,29.92,0,0,1,145,407.12Zm0-54.95A25.07,25.07,0,1,0,170,377.23,25.09,25.09,0,0,0,145,352.17Z"/><path class="g" d="M166.19,383.46A27.48,27.48,0,1,1,138.72,356,27.48,27.48,0,0,1,166.19,383.46Z"/><path class="b" d="M138.72,413.35a29.89,29.89,0,1,1,29.89-29.89A29.93,29.93,0,0,1,138.72,413.35Zm0-55a25.07,25.07,0,1,0,25.06,25.07A25.1,25.1,0,0,0,138.72,358.39Z"/><path class="h" d="M160.08,389.57A27.48,27.48,0,1,1,132.6,362.1,27.48,27.48,0,0,1,160.08,389.57Z"/><path class="b" d="M132.6,419.46a29.89,29.89,0,1,1,29.89-29.89A29.93,29.93,0,0,1,132.6,419.46Zm0-54.95a25.07,25.07,0,1,0,25.07,25.06A25.09,25.09,0,0,0,132.6,364.51Z"/><circle class="c" cx="213.72" cy="368.81" r="27.48" transform="translate(-198.19 259.15) rotate(-45)"/><path class="b" d="M213.72,398.7a29.89,29.89,0,1,1,29.89-29.89A29.93,29.93,0,0,1,213.72,398.7Zm0-54.95a25.06,25.06,0,1,0,25.07,25.06A25.09,25.09,0,0,0,213.72,343.75Z"/><path class="a" d="M193.7,376.27a27.48,27.48,0,1,0,27.48-27.48A27.48,27.48,0,0,0,193.7,376.27Z"/><path class="b" d="M221.18,406.16a29.89,29.89,0,1,1,29.89-29.89A29.93,29.93,0,0,1,221.18,406.16Zm0-55a25.07,25.07,0,1,0,25.07,25.07A25.09,25.09,0,0,0,221.18,351.2Z"/><path class="g" d="M199.93,382.49A27.48,27.48,0,1,0,227.41,355,27.48,27.48,0,0,0,199.93,382.49Z"/><path class="b" d="M227.41,412.38a29.89,29.89,0,1,1,29.89-29.89A29.93,29.93,0,0,1,227.41,412.38Zm0-54.95a25.07,25.07,0,1,0,25.06,25.06A25.09,25.09,0,0,0,227.41,357.43Z"/><path class="h" d="M206.05,388.61a27.48,27.48,0,1,0,27.47-27.48A27.48,27.48,0,0,0,206.05,388.61Z"/><path class="b" d="M233.52,418.5a29.89,29.89,0,1,1,29.89-29.89A29.93,29.93,0,0,1,233.52,418.5Zm0-55a25.07,25.07,0,1,0,25.07,25.07A25.09,25.09,0,0,0,233.52,363.54Z"/><rect class="a" x="77.52" y="309.8" width="59.28" height="106.79"/><path class="b" d="M136.79,419H77.52a2.41,2.41,0,0,1-2.42-2.41V309.8a2.42,2.42,0,0,1,2.42-2.42h59.27a2.42,2.42,0,0,1,2.42,2.42V416.59A2.41,2.41,0,0,1,136.79,419Zm-56.86-4.82h54.45v-102H79.93Z"/><rect class="c" x="65.93" y="309.8" width="59.28" height="106.79"/><path class="b" d="M125.21,419H65.93a2.41,2.41,0,0,1-2.41-2.41V309.8a2.41,2.41,0,0,1,2.41-2.42h59.28a2.41,2.41,0,0,1,2.41,2.42V416.59A2.41,2.41,0,0,1,125.21,419Zm-56.86-4.82H122.8v-102H68.35Z"/><rect class="a" x="227.7" y="309.8" width="59.28" height="106.79" transform="translate(514.68 726.39) rotate(180)"/><path class="b" d="M287,419H227.7a2.41,2.41,0,0,1-2.41-2.41V309.8a2.41,2.41,0,0,1,2.41-2.42H287a2.41,2.41,0,0,1,2.41,2.42V416.59A2.41,2.41,0,0,1,287,419Zm-56.87-4.82h54.45v-102H230.11Z"/><rect class="c" x="239.28" y="309.8" width="59.28" height="106.79" transform="translate(537.84 726.39) rotate(180)"/><path class="b" d="M298.56,419H239.28a2.41,2.41,0,0,1-2.41-2.41V309.8a2.41,2.41,0,0,1,2.41-2.42h59.28A2.41,2.41,0,0,1,301,309.8V416.59A2.41,2.41,0,0,1,298.56,419Zm-56.86-4.82h54.45v-102H241.7Z"/><path class="i" d="M127.07,251.58a9.6,9.6,0,1,0-9.6,9.6A9.6,9.6,0,0,0,127.07,251.58Z"/><path class="b" d="M117.47,263.59a12,12,0,1,1,12-12A12,12,0,0,1,117.47,263.59Zm0-19.2a7.19,7.19,0,1,0,7.19,7.19A7.19,7.19,0,0,0,117.47,244.39Z"/><circle class="i" cx="146.39" cy="251.58" r="9.6"/><path class="b" d="M146.39,263.59a12,12,0,1,1,12-12A12,12,0,0,1,146.39,263.59Zm0-19.2a7.19,7.19,0,1,0,7.19,7.19A7.19,7.19,0,0,0,146.39,244.39Z"/><path class="i" d="M184.92,251.58a9.6,9.6,0,1,0-9.6,9.6A9.6,9.6,0,0,0,184.92,251.58Z"/><path class="b" d="M175.32,263.59a12,12,0,1,1,12-12A12,12,0,0,1,175.32,263.59Zm0-19.2a7.19,7.19,0,1,0,7.19,7.19A7.2,7.2,0,0,0,175.32,244.39Z"/></svg>